<svg width="1080" height="1080" viewBox="0 0 1080 1080" fill="none" xmlns="http://www.w3.org/2000/svg">
<g clip-path="url(#clip0_65_143)">
<ellipse cx="540.5" cy="540" rx="396.5" ry="397" fill="#272A47"/>
<path d="M78.9915 893.488C48.185 780.741 32.3521 652.476 32.9017 591.48C153.118 635.002 407.481 670.399 404.704 722.622C401.234 787.902 407.768 922.627 424.61 962.349C437.543 992.852 461.19 1067.75 467.197 1070.2L467.856 1070.12C467.669 1070.28 467.448 1070.3 467.197 1070.2L137.267 1110.81C123.871 1071.55 106.032 992.45 78.9915 893.488Z" fill="#414566"/>
<path d="M299.376 298.397C394.299 297.23 503.216 396.468 549.332 425.652L493.883 651.65C471.241 680.012 409.279 743.412 396.098 734.325C379.622 722.965 225.655 721.274 117.803 748.766C14.1485 775.189 7.05655 606.744 42.2567 477.628C79.9659 339.308 213.373 299.455 299.376 298.397Z" fill="#4F5379"/>
<path d="M239.388 416.381C262.844 413.197 276.938 432.236 281.052 442.153C280.57 443.414 269.538 459.779 251.873 465.807C221.769 476.08 211.527 460.326 209.632 451.187C207.934 443.002 210.068 420.361 239.388 416.381Z" fill="#31344E"/>
<path d="M227.944 443.843C216.179 449.501 219.844 434.555 224.56 429.111C232.041 420.532 242.224 423.083 241.757 426.529C241.289 429.976 239.708 438.185 227.944 443.843Z" fill="#D1EFFF"/>
<path d="M480.605 559.765C513.747 516.901 463.603 451.62 434.389 424.338C502.702 393.356 542.627 451.431 675.673 392.945C803.814 336.616 889.957 267.775 904.656 360.819C914.099 420.596 564.081 561.891 590.66 588.494C612.293 610.146 937.311 641.116 930.826 697.563C924.342 754.01 601.158 704.337 511.037 689.074C420.917 673.812 439.177 613.346 480.605 559.765Z" fill="#A6DFFF"/>
<path d="M923.673 683.022C926.705 691.909 916.16 686.977 876.988 689.093C835.031 691.359 589.62 649.658 523.768 634.878C469.809 622.768 482.26 607.957 513.663 597.24C545.066 586.524 586.801 553.107 591.069 576.851C594.687 596.976 695.321 610.127 778.511 628.474C852.897 644.88 918.06 666.576 923.673 683.022Z" fill="#87AEC5"/>
<path d="M356.034 934.61L662.027 477.368C626.426 421.149 626.573 345.673 668.391 283.129C712.409 217.294 791.269 188.29 861.365 203.18L766.725 344.726L862.365 406.931L959.699 264.776C1003.88 321.85 1005.21 405.374 961.193 471.209C919.375 533.753 849.092 563.612 782.678 553.478L476.684 1010.72C467.88 1023.89 451.714 1027.54 438.962 1019.25L365.638 971.557C350.191 963.872 346.737 945.094 356.034 934.61Z" fill="#D2C69E"/>
<path d="M480.605 559.766C513.747 516.901 463.603 451.621 434.389 424.339C502.702 393.356 542.627 451.431 675.673 392.945C803.814 336.616 889.957 267.775 904.656 360.819C912.909 413.068 676.335 534.655 593.785 570.793C583.464 566.769 571.136 562.999 566.586 558.346L480.605 559.766Z" fill="#A6DFFF"/>
<path d="M586.613 447.301C594.41 440.457 553.91 441.192 550.297 451.828C547.431 460.262 578.817 454.145 586.613 447.301Z" fill="#87AEC5"/>
<path d="M894.404 361.282C890.001 352.255 872.516 354.919 849.26 367.257C820.881 382.315 799.026 399.804 780.44 416.086C759.501 434.43 737.379 460.574 719.517 473.418C704.066 484.528 612.5 552.001 565 573C543.5 584.501 582.662 584.918 585.058 584.534C606.851 581.044 682.668 537.857 695.192 530.636C707.715 523.416 738.692 498.7 806.093 466.858C873.494 435.016 901.55 375.935 894.404 361.282Z" fill="#87AEC5"/>
</g>
<defs>
<clipPath id="clip0_65_143">
<rect width="1080" height="1080" rx="540" fill="white"/>
</clipPath>
</defs>
</svg>
