<svg width="1080" height="1080" viewBox="0 0 1080 1080" fill="none" xmlns="http://www.w3.org/2000/svg">
<g clip-path="url(#clip0_74_42)">
<ellipse cx="540.5" cy="540" rx="396.5" ry="397" fill="#D2E0FC"/>
<path d="M78.9925 893.488C48.186 780.741 32.3531 652.476 32.9027 591.48C153.119 635.002 407.482 670.399 404.705 722.622C401.235 787.902 407.769 922.627 424.611 962.349C437.544 992.852 461.191 1067.75 467.198 1070.2L467.857 1070.12C467.669 1070.28 467.449 1070.3 467.198 1070.2L137.268 1110.81C123.872 1071.55 106.033 992.45 78.9925 893.488Z" fill="#414566"/>
<path d="M299.377 298.397C394.3 297.23 503.217 396.468 549.333 425.652L493.884 651.65C471.242 680.012 409.28 743.412 396.099 734.325C379.623 722.965 225.656 721.274 117.804 748.766C14.1495 775.189 7.05753 606.744 42.2577 477.628C79.9669 339.308 213.374 299.455 299.377 298.397Z" fill="#4F5379"/>
<path d="M239.389 416.381C262.845 413.197 276.939 432.236 281.053 442.153C280.571 443.414 269.539 459.779 251.874 465.807C221.77 476.08 211.528 460.326 209.633 451.187C207.935 443.002 210.069 420.361 239.389 416.381Z" fill="#31344E"/>
<path d="M227.945 443.843C216.18 449.501 219.845 434.555 224.561 429.111C232.042 420.532 242.225 423.083 241.758 426.529C241.29 429.976 239.709 438.185 227.945 443.843Z" fill="#D1EFFF"/>
<path d="M480.606 559.765C513.748 516.901 463.604 451.62 434.39 424.338C502.703 393.356 542.628 451.431 675.674 392.945C803.815 336.616 889.958 267.775 904.657 360.819C914.1 420.596 564.082 561.891 590.661 588.494C612.294 610.146 937.311 641.116 930.827 697.563C924.343 754.01 601.159 704.337 511.038 689.074C420.918 673.812 439.178 613.346 480.606 559.765Z" fill="#A6DFFF"/>
<path d="M923.674 683.022C926.706 691.909 916.161 686.977 876.989 689.093C835.032 691.359 589.621 649.658 523.769 634.878C469.81 622.768 482.261 607.957 513.664 597.24C545.067 586.524 586.802 553.107 591.07 576.851C594.688 596.976 695.322 610.127 778.512 628.474C852.898 644.88 918.061 666.576 923.674 683.022Z" fill="#87AEC5"/>
<path d="M356.037 934.61L662.03 477.368C626.429 421.149 626.576 345.673 668.394 283.129C712.412 217.294 791.272 188.29 861.368 203.18L766.728 344.725L862.368 406.931L959.702 264.776C1003.88 321.85 1005.21 405.374 961.196 471.209C919.378 533.753 849.095 563.612 782.681 553.478L476.687 1010.72C467.883 1023.89 451.717 1027.54 438.965 1019.25L365.641 971.557C350.194 963.872 346.74 945.094 356.037 934.61Z" fill="#E8D499"/>
<path d="M480.607 559.766C513.749 516.901 463.605 451.621 434.391 424.339C502.704 393.356 542.628 451.431 675.675 392.945C803.816 336.616 889.959 267.775 904.658 360.819C912.911 413.068 676.337 534.655 593.787 570.793C583.466 566.769 571.138 562.999 566.588 558.346L480.607 559.766Z" fill="#A6DFFF"/>
<path d="M586.614 447.301C594.411 440.457 553.911 441.192 550.298 451.828C547.432 460.262 578.818 454.145 586.614 447.301Z" fill="#87AEC5"/>
<path d="M894.406 361.282C890.003 352.255 872.518 354.919 849.262 367.257C820.883 382.315 799.028 399.804 780.442 416.086C759.503 434.43 737.381 460.574 719.519 473.418C704.068 484.528 612.502 552.001 565.002 573C543.502 584.501 582.664 584.918 585.06 584.534C606.853 581.044 682.67 537.857 695.194 530.636C707.717 523.416 738.694 498.7 806.095 466.858C873.496 435.016 901.552 375.935 894.406 361.282Z" fill="#87AEC5"/>
</g>
<defs>
<clipPath id="clip0_74_42">
<rect width="1080" height="1080" rx="540" fill="white"/>
</clipPath>
</defs>
</svg>
